<svg width="20" height="20" viewBox="0 0 20 20" fill="none" xmlns="http://www.w3.org/2000/svg">
<path d="M0.292893 17.3195C-0.0976311 17.71 -0.0976311 18.3432 0.292893 18.7337C0.683418 19.1242 1.31658 19.1242 1.70711 18.7337L0.292893 17.3195ZM19.0266 0.99999C19.0266 0.447705 18.5789 -1.007e-05 18.0266 -1.03229e-05L9.02662 -9.52211e-06C8.47434 -9.85929e-06 8.02662 0.447706 8.02662 0.99999C8.02662 1.55227 8.47434 1.99999 9.02662 1.99999L17.0266 1.99999L17.0266 9.99999C17.0266 10.5523 17.4743 11 18.0266 11C18.5789 11 19.0266 10.5523 19.0266 9.99999L19.0266 0.99999ZM1.70711 18.7337L18.7337 1.7071L17.3195 0.292883L0.292893 17.3195L1.70711 18.7337Z" fill="#EBEEF3"/>
</svg>
