<svg width="27" height="15" viewBox="0 0 27 15" fill="none" xmlns="http://www.w3.org/2000/svg">
<path d="M1 6.36397C0.447715 6.36397 0 6.81168 0 7.36397C0 7.91625 0.447715 8.36397 1 8.36397V6.36397ZM25.7864 8.07107C26.1769 7.68055 26.1769 7.04739 25.7864 6.65686L19.4224 0.2929C19.0319 -0.0976243 18.3987 -0.0976243 18.0082 0.2929C17.6177 0.683424 17.6177 1.31659 18.0082 1.70711L23.6651 7.36397L18.0082 13.0208C17.6177 13.4113 17.6177 14.0445 18.0082 14.435C18.3987 14.8256 19.0319 14.8256 19.4224 14.435L25.7864 8.07107ZM1 8.36397L25.0793 8.36397V6.36397L1 6.36397V8.36397Z" fill="#EBEEF3"/>
</svg>
