<svg width="27" height="15" viewBox="0 0 27 15" fill="none" xmlns="http://www.w3.org/2000/svg">
<path d="M25.0781 8.36395C25.6304 8.36395 26.0781 7.91624 26.0781 7.36395C26.0781 6.81167 25.6304 6.36395 25.0781 6.36395L25.0781 8.36395ZM0.291738 6.65685C-0.0987854 7.04737 -0.0987854 7.68054 0.291739 8.07106L6.6557 14.435C7.04623 14.8255 7.67939 14.8255 8.06991 14.435C8.46044 14.0445 8.46044 13.4113 8.06991 13.0208L2.41306 7.36395L8.06991 1.7071C8.46044 1.31658 8.46044 0.683411 8.06991 0.292886C7.67939 -0.097638 7.04622 -0.097638 6.6557 0.292886L0.291738 6.65685ZM25.0781 6.36395L0.998846 6.36395L0.998846 8.36395L25.0781 8.36395L25.0781 6.36395Z" fill="#EBEEF3"/>
</svg>
