<svg width="311" height="247" viewBox="0 0 311 247" fill="none" xmlns="http://www.w3.org/2000/svg">
<path d="M304.051 43.3321C299.037 39.5954 293.655 36.717 287.564 35.078C286.936 34.8852 286.351 34.6547 285.723 34.4619C284.548 34.0805 283.424 33.5023 282.272 33.4015C282.155 33.3554 282.034 33.3888 281.917 33.3427C279.38 33.0489 277.08 32.0893 274.692 31.2847C272.931 30.6728 271.204 30.1824 269.309 30.521C268.986 30.5838 268.602 30.324 268.246 30.2653C267.329 30.2567 266.505 30.0135 265.686 29.6909C265.568 29.6448 265.489 29.6406 265.414 29.5568C264.173 28.9325 262.993 28.6306 261.51 28.7517C260.148 28.8393 258.506 28.9519 257.198 28.0847C255.804 28.0508 254.456 27.8997 253.135 27.2712C252.512 26.9988 251.754 26.9986 251.038 26.9607C250.799 26.9481 250.598 26.9773 250.401 26.927C248.89 26.847 247.411 26.8885 245.946 26.6913C242.894 26.3303 239.842 25.9693 236.757 25.4869C236.163 25.4155 235.591 24.9464 235.01 24.6363C233.37 26.1057 231.436 25.0457 229.672 25.1918C229.601 25.0285 229.573 24.8274 229.46 24.7018C229.193 24.4881 228.922 24.3541 228.65 24.22L228.482 24.3707C228.707 24.622 228.974 24.8357 229.161 25.0451C226.527 25.0653 223.93 25.1274 221.295 25.1476C221.014 25.1726 220.734 25.1977 220.453 25.2227C218.393 24.9541 216.371 24.7275 214.337 25.4179C210.794 25.2703 207.314 26.1236 203.729 26.0137C202.812 26.0051 201.895 25.9965 201.025 26.549C200.53 26.842 199.73 26.8794 199.14 26.7285C198.157 26.477 197.347 26.6736 196.45 27.0251C195.795 27.3097 194.986 27.5063 194.27 27.4684C192.641 27.3423 191.135 27.8611 189.667 28.4219C189.054 28.6688 188.409 28.7942 187.763 28.9197C186.556 29.0952 185.349 29.2707 184.104 29.4044C183.987 29.3583 183.791 29.308 183.641 29.1404C181.297 26.8617 182.001 25.702 183.504 23.8264C184.363 22.7546 185.532 21.8588 186.658 21.0006C188.284 19.77 190.056 18.7864 191.724 17.518C192.266 17.1078 193.221 17.1583 193.801 16.7899C194.96 16.0532 196.434 16.0913 197.565 15.1536C198.527 14.3667 199.973 14.2037 201.194 13.7895C201.881 13.6264 202.569 13.4633 203.219 13.2582C203.363 12.827 203.461 12.5129 203.647 12.044C204.233 12.2745 204.771 12.6222 205.37 12.6139C206.086 12.6518 206.821 12.3715 207.546 12.2502C208.191 12.1248 208.799 11.9575 209.407 11.7901C210.469 11.3675 211.253 10.2119 212.596 10.4426C212.676 10.4468 212.928 10.2208 212.975 10.1035C213.142 9.27442 213.787 9.14898 214.503 9.18687C216.137 9.23339 217.787 8.28327 219.427 9.607C219.393 8.80717 219.411 8.48892 219.359 8.00733C221.423 8.19635 223.453 7.58551 225.318 9.16056C225.695 8.14309 225.928 7.55689 226.124 6.92881C227.284 6.87051 228.29 6.72423 229.461 7.18519C230.987 7.70488 232.622 8.42976 234.314 7.44197C234.562 7.29547 235.198 7.32915 235.386 7.53858C236.253 8.4224 237.39 8.08351 238.457 8.25968C239.721 8.48616 241.035 7.83746 242.187 8.61667C242.342 8.70465 242.749 8.56658 242.959 8.3782C243.464 7.92608 244.058 7.99744 244.517 8.34095C245.211 8.77665 245.792 9.08669 246.581 8.52996C246.787 8.42114 247.209 8.72277 247.565 8.78149C248.075 8.9282 248.693 9.28011 249.138 9.18392C250.794 8.83263 252.274 9.46955 253.818 9.67098C254.094 9.7255 254.366 9.85958 254.647 9.83453C258.69 9.60952 262.655 10.7371 266.661 10.4702C267.101 10.4536 267.578 10.4788 268.051 10.5837C270.302 10.9821 272.592 11.4224 274.843 11.8209C277.647 12.3283 280.489 12.8777 283.246 13.5024C286.083 14.1314 288.823 15.0743 291.562 16.0173C295.397 17.3374 299.199 18.5361 302.806 20.3629C304.474 21.2093 306.099 22.0933 307.328 23.6346C307.961 24.4263 308.716 25.1844 310.012 24.854C310.118 24.3808 310.225 23.9076 310.29 23.4721C310.595 21.613 310.662 19.7411 310.729 17.8693C310.761 17.3124 310.713 16.7512 310.543 16.2235C310.308 15.453 309.829 14.7493 309.023 14.188C308.831 14.0581 308.602 13.8863 308.367 13.7941C304.222 11.6196 300.109 9.56659 295.684 8.09552C294.823 7.81052 293.999 7.56744 293.175 7.32432C290.74 6.63688 288.347 5.91177 285.87 5.262C284.456 4.86799 282.945 4.78801 281.493 4.35209C280.079 3.95807 278.581 3.63937 277.116 3.44217C276.522 3.37081 275.969 3.26178 275.412 3.23231C273.198 2.87575 270.989 2.43965 268.774 2.08308C265.61 1.59644 262.483 1.15168 259.31 0.824184C255.659 0.471407 252.004 0.198191 248.381 0.046444C246.233 -0.0672213 244.071 0.0578017 241.914 0.103261C240.038 0.123674 238.124 0.102219 236.28 0.24408C233.758 0.389959 231.189 0.653057 228.7 0.920363C228.059 0.966247 227.442 1.2927 226.83 1.5396C225.721 2.07951 224.552 2.29691 223.321 2.19188C221.024 2.58905 218.723 3.06581 216.426 3.46301C216.103 3.52573 215.63 3.42089 215.363 3.20725C214.069 2.10137 212.914 2.75851 211.76 3.41564C211.47 3.59981 211.138 3.82166 210.844 4.08539C210.007 4.75935 209.063 5.2281 207.967 4.85091C207.419 4.66234 207.121 5.00561 206.672 5.18136C206.424 5.32786 205.904 5.3403 205.633 5.20622C205.127 4.97995 204.639 4.43541 204.097 4.84564C203.681 5.14284 203.528 5.73326 203.22 6.2357C201.829 5.44387 200.416 5.7282 199.477 6.79579C198.711 7.63309 197.907 7.75011 196.994 7.66192C195.726 7.515 194.57 7.49376 193.701 8.72466C193.221 9.45735 192.355 9.25189 191.634 9.29357C190.394 9.34768 189.192 9.44366 188.441 10.7207C188.221 11.0682 187.693 11.2397 187.281 11.4574C185.673 12.3698 183.836 13.1105 182.452 14.2742C179.691 16.5222 177 18.9335 176.539 22.8194C176.438 23.8914 176.141 24.9131 176.433 26.0857C177.051 28.5524 175.837 30.2438 173.387 31.2314C171.75 31.9428 170.184 32.8176 168.444 33.2442C168.201 33.3112 167.86 33.6921 167.893 33.8136C168.26 35.07 166.912 34.9188 166.558 35.5385C166.11 36.3926 165.319 36.271 164.631 36.4341C163.902 36.6349 163.172 36.8357 162.442 37.0365C162.077 37.1369 161.675 37.1954 161.385 37.3796C159.932 38.38 158.511 39.5019 157.095 40.5442C156.721 40.8037 156.371 41.3438 156.011 41.3647C154.888 41.4649 154.483 42.2813 153.997 43.0936C153.554 43.8681 152.97 44.3161 151.964 44.4623C150.795 44.6798 150.024 45.5966 149.605 46.6518C149.042 48.1382 148.169 49.4487 147.409 50.8848C146.523 52.434 145.819 54.2721 146.029 56.1985C146.268 59.0042 146.507 61.8099 146.788 64.578C146.257 65.5075 145.396 65.9009 144.536 66.2943C137.779 69.3284 131.614 73.1918 125.66 77.5452C122.496 79.8517 120.322 83.0085 118.105 86.203C116.317 88.8616 116.192 91.7678 116.024 94.7116C115.935 94.8665 115.893 94.9042 115.847 95.0214C114.427 96.8217 112.53 97.9183 110.59 99.0526C108.117 100.438 105.756 101.949 103.616 103.791C103.112 104.243 102.537 104.532 101.957 104.9C101.004 105.528 99.7124 105.779 99.5468 107.286C99.4911 107.563 99.1127 107.902 98.7854 108.044C97.5602 108.538 97.066 109.509 97.0401 110.665C96.9857 111.62 96.5516 112.235 95.8788 112.838C93.4731 115.145 92.6269 118.093 92.6467 121.246C92.6266 123 91.7585 124.231 90.8483 125.5C89.0856 126.324 87.4729 127.316 85.6533 127.739C83.1041 128.362 81.1744 130.016 78.9207 131.054C76.6625 132.171 74.5783 133.737 72.5407 135.185C70.461 136.671 68.4983 138.203 66.4937 139.773C65.9936 140.145 65.6016 140.723 65.1766 141.179C64.4482 142.059 63.7994 142.942 63.1085 143.863C62.8937 144.131 62.5574 144.432 62.4972 144.788C61.9815 146.836 60.7544 148.766 60.7866 151.002C60.7788 151.84 60.4527 152.66 60.2858 153.49C58.9765 154.059 58.8438 155.688 57.446 156.412C54.6127 157.818 51.7704 159.383 49.2236 161.363C48.4292 162 47.5974 162.594 46.7985 163.31C45.3268 164.629 43.8552 165.947 42.421 167.308C42.0006 167.685 41.6551 168.145 41.3892 168.61C38.4736 173.563 36.939 178.789 37.9698 184.509C38.244 186 38.3965 187.524 37.4262 189.149C36.2056 189.563 34.6997 190.082 33.1938 190.601C32.7449 190.776 32.0618 190.86 31.9641 191.174C31.4802 192.665 30.4549 192.451 29.2945 192.509C27.6521 192.622 25.9347 192.651 24.7677 194.225C24.5109 194.53 23.9824 194.702 23.5756 194.84C21.0593 195.585 18.684 196.656 16.5157 198.297C14.8894 199.528 12.9631 200.423 11.3698 201.775C8.14124 204.517 5.17981 207.473 3.59158 211.539C3.35868 212.125 2.92915 212.661 2.61669 213.243C-0.171522 218.761 -0.581933 224.565 0.673927 230.537C0.801327 231.102 1.01282 231.592 1.06066 232.153C1.67096 238.251 5.38947 242.318 9.89328 245.908C10.6197 246.465 11.4108 246.587 12.2381 246.072C13.1541 245.402 14.028 244.77 14.986 244.063C14.8483 242.978 14.5469 241.964 14.6013 241.01C14.6182 240.013 15.7399 239.234 15.2929 237.974C12.4831 236.868 10.0368 234.982 7.72121 232.905C5.25555 230.66 4.48788 228.025 5.23063 224.793C5.75988 222.507 6.4062 220.266 7.60039 218.215C8.75253 216.201 10.1673 214.48 11.8492 212.973C13.9981 210.972 16.2926 209.218 18.6006 207.225C18.5347 206.983 18.4778 206.581 18.3879 206.057C24.9032 201.654 32.2269 199.168 39.744 197.491C40.2363 197.956 40.5784 198.253 40.9536 198.672C41.2764 198.61 41.6787 198.551 42.0015 198.488C42.9323 198.258 43.6814 198.418 44.235 199.205C44.6432 199.745 45.1024 200.089 45.7673 200.324C46.8631 200.701 47.9588 201.078 48.9478 201.928C49.7447 202.649 51.2053 202.926 52.3612 202.947C53.8399 202.905 55.1368 203.253 56.3735 203.957C57.109 204.355 57.8535 204.594 58.7798 204.444C59.5845 204.326 60.4926 204.494 61.2792 204.695C62.0657 204.897 62.6977 205.01 63.3329 204.365C63.5432 204.177 64.0251 204.123 64.3854 204.102C68.1248 204.3 71.8675 203.739 75.5636 203.297C76.0455 203.242 76.4854 203.226 76.9627 203.251C79.5327 203.666 81.9797 203.437 84.289 202.122C84.9902 201.721 85.3699 202.06 85.494 203.383C86.4727 203.714 87.441 203.526 88.39 202.978C88.9275 202.647 89.5071 202.279 90.0822 201.99C89.8946 201.78 89.7446 201.613 89.5149 201.441C89.7672 201.215 89.982 200.947 90.2673 200.843C90.59 200.78 90.9458 200.839 91.3061 200.818C92.3598 201.233 93.1121 200.634 93.8269 199.993C94.4997 199.391 94.3813 198.666 94.305 197.904C94.2003 196.941 94.091 196.057 93.9863 195.094C93.6824 192.724 92.7239 190.638 91.2324 188.804C90.7867 188.221 90.0888 187.865 89.4284 187.551C86.8617 186.378 84.1042 185.753 81.2866 185.484C78.8667 185.237 76.4378 185.148 74.0089 185.059C73.2929 185.021 72.5632 185.222 71.8426 185.264C71.2811 185.314 70.7151 185.444 70.1627 185.335C68.8568 185.146 67.5792 185.158 66.2881 185.409C65.8437 185.505 65.3198 185.597 64.889 185.455C63.1703 184.805 61.7395 185.408 60.5292 186.341C57.4114 185.737 54.4404 186.059 51.5684 186.745C50.0715 187.105 48.5928 187.146 47.1562 187.15C45.7195 187.154 44.6691 185.981 43.8153 184.858C43.2242 184.029 43.4002 183.041 43.7307 182.141C44.5317 179.988 45.5247 177.966 47.1315 176.375C48.5657 175.015 50.0748 173.738 51.6306 172.344C51.3816 171.812 51.2076 171.364 50.9586 170.832C51.3745 170.535 51.9677 169.928 52.2394 170.062C53.8694 170.866 54.7887 169.439 56.0468 169.066C56.2105 168.995 56.4343 168.568 56.4058 168.367C56.3535 167.885 56.184 167.358 56.675 167.144C57.0864 166.927 57.5638 166.952 58.0082 166.856C58.8174 166.659 59.6221 166.542 60.4733 166.308C61.6099 165.969 62.6442 166.024 63.5866 166.991C63.5717 166.552 63.5478 166.271 63.5465 165.593C64.5355 166.443 65.379 167.046 65.9747 167.796C66.2703 168.211 66.0283 168.956 66.0205 169.793C67.3187 170.82 68.8601 171.779 70.5651 172.667C72.036 173.463 73.4603 174.377 74.8846 175.29C76.5761 176.417 78.4357 177.393 80.5839 177.507C81.6978 177.566 82.756 177.901 83.8563 178.199C86.3705 178.89 88.7916 179.816 91.4547 179.997C92.3299 180.043 93.2154 180.609 93.9974 180.89C94.8066 180.693 95.6249 180.338 96.4205 180.38C99.0506 180.439 101.672 180.657 104.297 180.796C106.085 180.931 107.877 180.986 109.42 179.83C109.672 179.604 110.112 179.588 110.514 179.529C112.362 179.308 114.206 179.166 116.091 178.986C116.933 178.911 117.417 179.535 118.03 179.967C118.532 180.273 119.131 180.265 119.41 179.561C119.499 179.406 119.512 179.167 119.601 179.013C119.69 178.858 119.937 178.711 120.055 178.757C121.506 179.193 122.209 177.355 123.674 177.552C125.734 177.821 127.468 176.795 129.142 176.126C129.641 175.075 128.387 175.368 128.526 174.338C129.259 173.379 129.869 171.775 131.96 171.487C132.089 172.73 130.709 173.136 130.533 174.124C130.988 174.548 131.408 174.171 131.74 173.949C132.236 173.656 132.656 173.279 132.959 172.856C134.798 170.001 135.611 166.932 135.006 163.548C134.859 162.622 134.75 161.739 134.762 160.822C134.736 159.184 134.232 157.522 134.046 155.876C133.813 153.669 132.739 152.216 130.534 151.7C130.337 151.65 130.224 151.524 130.074 151.357C129.999 151.273 130.004 151.193 129.929 151.109C130.087 150.439 130.63 150.708 131.028 150.729C132.221 150.792 133.448 150.976 134.683 151.002C135.123 150.985 135.572 150.809 136.016 150.713C135.936 150.031 136.188 149.805 136.857 149.96C137.755 149.608 138.63 149.655 139.492 149.94C138.623 150.492 137.714 150.324 136.853 150.039C136.558 150.303 136.306 150.529 136.012 150.793C136.467 151.216 136.842 151.635 137.609 151.476C138.657 151.292 139.7 151.188 140.748 151.004C140.448 150.668 140.148 150.333 139.848 149.998C140.442 150.07 140.995 150.179 141.589 150.25C141.337 150.476 141.08 150.782 140.828 151.008C141.324 151.393 141.848 151.301 142.339 151.088C142.114 150.836 141.852 150.543 141.669 150.254C142.099 150.397 142.409 150.573 142.381 151.05C142.878 151.435 143.435 151.465 143.973 151.134C146.041 151.244 147.949 150.666 149.904 149.972C150.596 149.729 151.331 149.449 152.047 149.487C154.518 149.538 156.881 149.383 159.172 148.387C160.724 147.751 162.451 147.563 164.074 147.09C165.168 146.789 166.188 146.404 166.695 145.194C166.97 144.57 167.578 144.403 168.341 144.324C171.878 143.872 173.522 142.323 174.195 138.928C174.691 136.52 174.71 134.087 174.57 131.645C174.555 131.206 174.301 130.753 174.207 130.31C174.079 129.744 173.755 129.128 173.9 128.697C174.337 127.324 173.726 126.134 173.56 124.849C173.324 123.4 172.456 122.516 171.299 121.816C170.142 121.117 168.816 120.568 167.575 119.943C169.161 119.429 169.161 119.429 170.462 119.697C171.843 119.97 173.182 120.28 174.563 120.553C175.312 120.712 175.986 120.787 176.588 120.021C176.845 119.716 177.608 119.636 178.127 119.624C179.044 119.633 179.995 119.763 180.949 119.813C183.098 119.927 185.25 119.961 187.388 119.555C188.155 119.396 189.059 119.644 189.855 119.686C190.809 119.736 191.779 120.227 192.741 119.44C193.036 119.176 193.63 119.247 194.108 119.272C196.939 119.303 199.746 119.052 202.492 118.479C204.752 118.04 206.921 117.078 209.35 117.166C210.146 117.208 210.969 116.773 211.749 116.375C212.778 115.831 213.722 115.362 214.92 115.346C215.201 115.321 215.561 115.3 215.729 115.149C217.126 113.747 219.124 113.693 220.803 112.944C222.767 112.09 224.666 111.672 226.796 112.104C227.662 112.309 228.626 112.201 229.472 112.046C229.833 112.025 230.22 111.527 230.402 111.138C230.719 110.476 231.234 110.543 231.762 110.372C232.169 110.234 232.59 109.857 232.73 109.505C232.962 108.919 233.041 108.245 233.157 107.613C233.516 104.799 233.755 102.018 233.515 99.2123C233.5 98.7726 233.528 98.2953 233.564 97.6588C234.926 97.5712 236.109 97.1151 237.113 96.2904C237.824 95.7295 238.628 95.6125 239.508 95.5792C241.183 95.5881 242.826 95.4754 244.486 95.0446C245.581 94.7434 246.878 95.0913 247.954 95.1084C249.422 94.5476 250.774 93.9408 251.835 93.5181C252.785 93.6482 252.015 94.5651 252.857 94.49C253.461 94.4022 254.144 94.3186 254.18 93.6821C254.192 92.7651 254.238 91.9694 255.023 91.4922C256.299 90.8017 257.622 89.9938 259.2 90.3167C259.396 90.367 259.56 90.2959 259.878 90.3127C260.966 88.7343 261.781 87.0218 261.937 84.9951C262.225 81.3394 262.471 77.7214 262.319 74.0824C262.274 72.7633 260.948 69.4212 260.006 68.4536C259.101 67.5279 258.117 66.598 257.128 65.7477C256.861 65.534 256.509 65.3958 256.116 65.2951C255.606 65.1484 254.927 65.1524 254.505 64.8508C253.587 64.1638 252.715 63.3595 251.881 62.5971C252.235 61.9775 252.713 62.0027 253.139 62.2248C255.003 63.1215 257.22 62.7201 259.08 63.6963C259.427 63.9141 260.068 63.8682 260.475 63.7302C261.41 63.4206 262.228 63.0648 263.016 63.9444C263.166 64.112 263.77 64.0242 264.092 63.9615C264.579 63.8276 265.121 63.4174 265.598 63.4427C266.474 63.489 267.307 63.573 268.182 63.6193C268.935 63.699 269.609 63.7746 270.321 63.892C270.756 63.955 271.089 64.4115 271.549 64.755C272.305 64.0769 273.166 63.6835 274.308 63.9434C275.216 64.1112 276.18 64.0026 277.097 64.0112C277.575 64.0364 278.066 63.823 278.496 63.9655C280.819 64.5273 283.162 64.0129 285.441 63.9339C286.84 63.8882 288.215 63.562 289.582 63.3949C290.063 63.3406 290.554 63.1271 290.948 63.2278C292.207 63.5338 293.386 63.1572 294.522 62.8184C297.764 61.9524 301.047 61.0488 303.762 58.9181C304.888 58.06 305.621 57.1012 305.74 55.711C305.877 54.0025 306.136 52.2606 306.231 50.5897C306.272 49.8737 306.276 49.1157 306.237 48.3954C306.213 48.1149 306.189 47.8343 306.123 47.5914C306.298 45.9248 305.509 44.3668 304.051 43.3321ZM209.004 11.1703C209.041 11.2121 209.158 11.2582 209.196 11.3001C209.266 11.4635 209.299 11.5849 209.328 11.7859C209.173 11.6979 209.056 11.6518 208.944 11.5262C208.906 11.4843 208.995 11.3294 209.004 11.1703ZM200.982 13.2995C201.02 13.3414 201.141 13.3079 201.137 13.3875C201.17 13.5089 201.165 13.5885 201.156 13.7476C201.128 13.5466 201.053 13.4628 200.982 13.2995ZM15.8993 209.117C15.5629 209.419 15.1845 209.758 14.764 210.135C14.6651 209.77 14.5571 209.565 14.6036 209.448C14.79 208.979 15.1263 208.678 15.5992 208.782C15.7163 208.829 15.8993 209.117 15.8993 209.117ZM30.4119 199.511C30.1732 199.498 29.897 199.444 29.6628 199.352C29.6253 199.31 29.6764 199.113 29.69 198.874C29.9662 198.929 30.2049 198.941 30.4391 199.034C30.5141 199.117 30.4209 199.352 30.4119 199.511ZM76.751 195.06C76.1339 195.386 75.5815 195.277 75.0007 194.967C76.0622 194.545 76.0997 194.587 76.751 195.06ZM69.7496 194.69C69.712 194.648 69.8007 194.493 69.8427 194.455C70.17 194.313 70.5814 194.095 70.8576 194.15C72.1216 194.376 73.381 194.682 74.6824 194.951C73.2787 195.076 71.9171 195.163 70.4759 195.247C70.3168 195.238 70.0781 195.226 69.9235 195.138C69.8485 195.054 69.7825 194.811 69.7496 194.69ZM67.8957 194.312C67.8957 194.312 68.0923 194.362 67.9662 194.475L67.8957 194.312ZM71.0079 202.018C71.1671 202.027 71.3262 202.035 71.4808 202.123C71.4808 202.123 71.4717 202.282 71.4672 202.362C71.3081 202.353 71.1489 202.345 70.9943 202.257C70.9568 202.215 71.0034 202.098 71.0079 202.018ZM122.732 163.976C121.947 164.453 121.157 165.01 120.339 165.365C117.959 166.516 115.55 167.466 112.793 166.842C112.358 166.779 111.838 166.791 111.431 166.929C110.407 167.394 109.453 167.343 108.385 167.167C107.833 167.058 107.271 167.108 106.672 167.116C101.872 167.341 97.0739 166.808 92.374 165.961C88.8209 165.294 85.086 165.016 81.8907 162.972C81.4689 162.67 80.7904 162.674 80.28 162.528C78.6409 161.882 76.9087 161.472 74.9501 160.131C78.1631 159.064 80.8715 158.449 83.6458 158.077C85.3348 157.847 87.0192 157.697 88.699 157.626C90.6971 157.573 92.6577 157.477 94.6002 157.699C96.6223 157.926 98.6398 158.232 100.707 157.663C101.516 157.467 102.528 157.919 103.432 158.167C103.862 158.309 104.247 158.569 104.752 158.795C105.785 158.171 106.796 157.946 107.98 158.168C111.524 158.994 115.129 159.464 118.659 160.528C119.563 160.776 120.471 160.943 121.37 161.27C122.536 161.811 123.169 162.602 122.732 163.976ZM76.6703 156.551C76.7169 156.434 76.8055 156.279 76.8521 156.162C76.9691 156.208 77.1658 156.258 77.2829 156.304C77.1567 156.417 77.0681 156.572 76.9044 156.643C76.8669 156.601 76.7498 156.555 76.6703 156.551ZM89.8816 154.377C90.0032 154.344 90.1669 154.273 90.2885 154.239L90.4386 154.407C90.317 154.44 90.1533 154.511 90.0317 154.545C90.0317 154.545 89.9567 154.461 89.8816 154.377ZM108.522 147.263C106.529 147.916 104.862 147.07 103.065 147.094C102.705 147.115 102.269 147.052 101.942 147.195C100.787 147.852 99.4812 147.663 98.3719 147.524C97.1034 147.378 95.8725 147.273 94.7689 147.733C92.7675 148.545 90.75 148.238 88.7519 148.292C87.3528 148.338 85.9582 148.304 84.55 148.509C82.4167 148.835 80.3163 149.282 78.216 149.73C77.8932 149.793 77.7114 150.182 77.4966 150.45C77.3705 150.563 77.2353 150.835 77.1557 150.831C75.8543 150.563 74.8361 151.626 73.6472 151.483C72.1776 151.366 70.8774 151.776 69.5021 152.102C69.1794 152.165 68.8191 152.185 68.3417 152.16C68.4563 150.849 69.2927 150.176 70.0495 149.497C73.2406 146.713 76.5817 144.097 80.3969 142.264C83.4313 140.829 86.5033 139.435 89.4672 137.836C90.9492 137.037 92.371 136.593 94.0748 136.803C95.1854 137.62 96.5392 138.37 97.1316 139.878C97.2397 140.083 97.4647 140.334 97.6989 140.426C100.749 142.224 104.106 143.519 107.469 144.734C107.899 144.876 108.381 144.822 108.821 144.805C111.016 144.802 111.601 145.032 114.085 146.959C112.167 147.017 110.191 146.674 108.522 147.263ZM222.051 26.5841C222.407 26.6429 222.763 26.7016 223.119 26.7603C223.03 26.9152 223.054 27.1958 222.974 27.1916C222.651 27.2543 222.296 27.1956 221.935 27.2164C221.954 26.8982 222.014 26.5422 222.051 26.5841ZM225.712 29.5709C225.749 29.6128 225.703 29.73 225.698 29.8096C225.576 29.843 225.371 29.9519 225.254 29.9058C225.019 29.8136 224.832 29.6041 224.64 29.4743C224.728 29.3194 224.901 29.0891 224.901 29.0891C225.173 29.2232 225.402 29.3949 225.712 29.5709ZM210.288 27.1587L210.194 27.3932L210.044 27.2257L210.288 27.1587ZM152.004 55.6767C153.203 53.5455 154.556 51.5024 156.368 49.8027C157.845 48.4045 159.471 47.1738 161.102 45.8635C161.312 45.6751 161.593 45.6501 161.84 45.5036C164.632 44.135 167.343 42.7623 170.055 41.3895C170.091 40.753 170.156 40.3175 170.23 39.7229C171.578 39.874 172.996 40.1885 173.798 38.7147C173.887 38.5598 174.289 38.5012 174.57 38.4762C175.618 38.2922 176.633 37.9868 177.63 37.9997C179.506 37.9793 181.294 38.1138 182.846 39.5924C183.905 40.6061 185.385 41.243 186.403 42.2944C187.608 43.5552 189.064 43.9115 190.548 44.4689C191.251 44.7454 192.004 44.8252 192.702 45.1814C194.37 46.0277 195.991 46.9913 197.663 47.7581C201.316 49.4676 204.839 51.3698 208.72 52.5727C210.209 53.0505 211.74 53.4906 213.268 54.6887C212.501 54.8476 211.789 54.7301 211.533 55.0358C210.206 56.6015 208.965 55.9772 207.705 54.9928C207.32 54.7331 206.857 54.4691 206.417 54.4858C205.977 54.5024 205.519 54.8373 204.944 55.126C203.557 54.2546 201.957 54.3296 200.235 54.438C197.067 54.7093 193.885 54.5409 190.759 54.7745C189.477 54.8663 188.322 55.5234 186.983 55.2132C186.67 55.1168 186.216 55.3721 185.964 55.5982C185.09 56.2302 184.117 56.498 183.021 56.1208C182.356 55.8861 181.748 56.0534 181.136 56.3003C180.645 56.5138 180.079 56.6434 179.517 56.6935C177.707 56.9568 175.826 57.0568 174.006 57.4792C172.795 57.7343 171.663 57.9937 170.423 58.0478C169.702 58.0894 168.78 58.1604 168.318 58.5748C167.393 59.4037 166.387 59.55 165.259 59.7297C164.254 59.876 163.314 60.2652 162.299 60.5706C161.12 60.9472 160.012 61.4871 158.805 61.6626C157.598 61.8381 156.4 61.8545 155.391 62.7588C154.802 63.2863 153.927 63.2399 153.327 62.5698C151.667 60.8859 150.227 58.8545 152.004 55.6767ZM218.441 60.5485C218.483 60.5108 218.675 60.6407 218.792 60.6868C218.75 60.7245 218.666 60.7998 218.586 60.7956C218.465 60.8291 218.305 60.8207 218.146 60.8123C218.23 60.7369 218.357 60.6239 218.441 60.5485ZM200.329 59.7897C200.366 59.8316 200.441 59.9154 200.437 59.995C200.437 59.995 200.315 60.0284 200.273 60.0661C200.236 60.0242 200.203 59.9027 200.165 59.8609C200.165 59.8609 200.287 59.8274 200.329 59.7897ZM193.76 60.2402C193.826 60.483 193.934 60.6883 193.92 60.927C193.911 61.0861 193.785 61.1991 193.696 61.354C193.429 61.1404 193.157 61.0063 192.89 60.7927C192.937 60.6754 192.983 60.5582 193.025 60.5205C193.311 60.4159 193.554 60.349 193.76 60.2402ZM169.393 65.6144C168.729 66.0581 168.191 65.7104 167.614 65.3208C168.246 65.434 168.799 65.5431 169.393 65.6144ZM158.124 63.1029L157.947 63.4128C157.91 63.3709 157.877 63.2494 157.839 63.2075C157.923 63.1322 158.045 63.0987 158.124 63.1029ZM170.53 88.3784C172.098 88.182 173.25 88.9612 174.398 89.82C171.911 90.7657 170.932 90.4346 170.53 88.3784ZM166.464 86.2081C165.449 86.5135 164.924 85.9271 164.357 85.3784C165.675 84.6501 166.823 85.5088 168.003 85.8107C168.162 85.8191 168.261 86.1834 168.402 86.5101C167.611 86.3885 166.951 86.0742 166.464 86.2081ZM137.39 78.9639L137.227 79.035C137.264 79.0769 137.273 78.9178 137.39 78.9639ZM122.989 92.9254C124.219 90.2373 125.946 87.9347 128.47 86.3525C129.256 85.8753 129.896 85.151 130.568 84.5482C130.863 84.2845 131.077 84.0165 131.409 83.7947C134.219 82.1079 137.028 80.4211 139.875 78.7761C140.908 78.1525 142.016 77.6126 143.007 77.0266C143.807 74.196 144.466 73.8319 146.92 74.8794C146.999 74.8837 147.074 74.9674 147.154 74.9716C147.744 75.1226 147.93 74.6536 148.112 74.2642C149.104 74.3566 150.115 74.1308 151.12 73.9845C151.804 73.9009 152.721 73.9095 153.255 74.3368C154.745 75.493 156.736 76.2766 157.133 78.4124C159.126 78.4381 160.672 79.3179 162.26 80.16C165.207 81.6726 165.666 82.0161 166.618 83.5029C165.763 83.8168 164.907 84.1306 164.084 84.5659C163.631 84.8212 164.01 85.1605 164.193 85.4495C163.587 86.2952 162.81 86.6132 161.761 86.1188C161.489 85.9847 161.302 85.7753 161.026 85.7208C160.909 85.6747 160.74 85.8254 160.539 85.8547C160.306 86.4409 161.309 87.0525 160.313 87.7181C160.037 87.6635 159.677 87.6844 159.368 87.5084C157.382 86.6452 155.289 86.2552 153.183 86.1039C152.467 86.066 151.789 86.07 151.472 86.7315C150.935 87.7406 149.793 87.4806 149.125 88.0039C148.003 88.7825 147.202 88.1416 146.265 87.7728C146.111 87.6848 145.867 87.7517 145.708 87.7433C145.376 87.9652 145.087 88.1493 144.755 88.3712C144.381 88.6307 144.007 88.8902 143.671 89.1917C142.661 90.0959 142.213 90.2716 140.976 89.5678C139.626 88.7383 138.541 88.8804 137.406 89.8976C137.196 90.086 136.985 90.2744 136.611 90.5339C133.971 89.9553 131.338 90.6539 128.733 91.5535C127.755 91.9008 126.815 92.29 125.838 92.6373C124.861 92.9846 123.888 93.2523 122.91 93.5996C123.017 93.1264 122.984 93.005 122.989 92.9254ZM161.986 91.278C161.582 90.6581 161.141 89.9963 160.513 89.1252C161.346 89.2091 161.94 89.2805 162.455 89.3476C163.338 88.5564 164.203 88.0835 165.225 89.0553L163.165 90.9014C163.052 90.7758 162.902 90.6082 162.789 90.4825C162.537 90.7086 162.243 90.9723 161.986 91.278ZM158.391 90.6488C158.166 90.3975 157.941 90.1462 157.716 89.8949C158.399 89.8113 158.436 89.8532 158.391 90.6488ZM153.222 91.732C153.091 91.9246 152.38 91.8071 151.991 91.627C151.326 91.3923 150.67 90.9984 149.855 90.5962C151.019 89.78 151.829 90.2618 152.635 90.8231C152.902 91.0368 153.66 91.037 153.222 91.732ZM142.521 117.78C143.218 117.458 143.85 117.571 144.613 118.17C143.589 118.634 143.004 118.404 142.521 117.78ZM100.23 119.812C101.99 117.63 103.942 115.579 105.895 113.528C107.426 111.853 109.104 110.426 111.044 109.291C111.703 108.927 112.25 108.437 112.834 107.989C114.502 106.721 116.349 105.821 118.36 105.529C119.448 106.743 120.784 107.812 121.507 109.127C122.334 110.727 124.038 110.936 125.13 112.072C125.243 112.197 125.393 112.365 125.547 112.453C125.856 112.629 126.241 112.888 126.559 112.905C128.08 112.826 129.181 113.802 130.516 114.192C131.223 114.389 131.93 114.586 132.679 114.745C134.214 115.106 135.927 115.157 137.243 115.865C138.752 116.703 140.609 116.322 142.024 117.394C142.179 117.482 142.291 117.608 142.404 117.734C141.109 118.743 139.796 119.391 138.157 118.746C137.021 119.763 135.828 119.7 134.554 118.954C133.935 118.602 133.415 117.936 132.563 118.171C131.116 119.77 131.078 119.728 129.378 118.76C129.068 118.584 128.755 118.488 128.324 118.345C128.124 119.053 128.055 119.568 127.859 120.196C125.111 119.412 122.366 120.664 119.664 119.763C119.292 120.701 118.741 121.27 117.777 121.379C116.209 121.575 114.567 121.687 113.103 122.169C112.168 122.478 111.321 122.633 110.422 122.306C109.56 122.021 108.699 121.736 107.795 121.489C106.683 122.108 105.5 122.564 105.212 124.105C104.032 123.803 102.97 123.548 101.869 123.25C100.807 122.994 99.694 123.614 98.5653 123.115C98.7219 121.767 99.4969 120.77 100.23 119.812ZM144.034 126.239C143.136 126.591 142.369 126.75 141.685 126.155C142.419 125.874 143.158 125.515 144.034 126.239ZM140.684 124.107C140.689 124.027 140.651 123.985 140.618 123.864C140.66 123.826 140.744 123.751 140.782 123.793C140.861 123.797 140.936 123.881 140.974 123.923L140.684 124.107ZM135.919 123.695C135.963 124.336 135.556 124.474 135.2 124.415C134.727 124.31 134.137 124.159 134.468 123.259C134.978 123.406 135.489 123.553 135.919 123.695ZM132.641 124.519C132.364 124.465 132.13 124.372 131.934 124.322C131.938 124.243 131.985 124.125 132.027 124.088C132.19 124.016 132.392 123.987 132.509 124.033C132.588 124.038 132.575 124.276 132.641 124.519ZM128.723 123.953C128.831 124.158 128.673 124.828 128.551 124.861C128.065 124.995 127.55 124.928 126.787 125.007C127.025 124.342 127.056 123.785 127.346 123.601C127.767 123.224 128.394 123.417 128.723 123.953ZM124.592 125.011C124.546 125.128 124.298 125.275 124.181 125.229C123.788 125.128 123.399 124.948 123.048 124.81C123.099 124.613 123.15 124.416 123.201 124.219C123.594 124.32 124.03 124.383 124.418 124.563C124.498 124.567 124.602 124.852 124.592 125.011ZM120.634 125.161C120.587 125.278 120.489 125.592 120.452 125.55C120.213 125.537 119.979 125.445 119.745 125.353C119.951 125.244 120.156 125.135 120.442 125.031C120.479 125.073 120.634 125.161 120.634 125.161ZM119.661 125.428C119.559 125.822 119.419 126.174 119.359 126.53C118.61 126.37 117.903 126.173 116.919 125.922C117.9 124.817 118.7 124.779 119.661 125.428ZM115.07 125.465C115.01 125.821 114.912 126.135 114.848 126.57C114.496 126.432 114.22 126.377 114.07 126.21C113.808 125.917 113.755 125.435 114.162 125.297C114.368 125.188 114.714 125.406 115.07 125.465ZM108.91 127.134C108.784 127.247 108.616 127.398 108.536 127.393C108.223 127.297 107.951 127.163 107.679 127.029C108.002 126.966 108.325 126.903 108.648 126.841C108.727 126.845 108.835 127.05 108.91 127.134ZM98.0781 125.364L97.844 125.272L97.9701 125.159L98.0781 125.364ZM101.992 128.803C101.997 128.723 102.001 128.644 102.043 128.606L102.286 128.539C102.165 128.573 102.039 128.686 101.992 128.803ZM144.22 150.988C144.192 150.787 144.126 150.544 144.097 150.343C144.257 150.351 144.416 150.36 144.575 150.368C144.44 150.64 144.351 150.795 144.22 150.988ZM141.658 146.942C141.377 146.967 141.017 146.988 140.736 147.013C140.656 147.009 140.544 146.883 140.544 146.883C140.59 146.766 140.684 146.531 140.763 146.535C141.044 146.51 141.4 146.569 141.638 146.582C141.671 146.703 141.667 146.783 141.658 146.942ZM156.811 139.404C156.693 139.358 156.497 139.308 156.38 139.262C156.38 139.262 156.389 139.103 156.431 139.065C156.59 139.073 156.749 139.082 156.871 139.048C156.866 139.128 156.82 139.245 156.811 139.404ZM168.279 138.415C167.84 139.11 167.19 139.315 166.366 139.072C166.752 137.895 166.752 137.895 168.063 138.005C168.1 138.046 168.166 138.289 168.279 138.415ZM166.771 135.462C165.073 135.851 165.073 135.851 164.088 137.036C163.705 137.455 163.476 137.961 163.093 138.38C162.879 138.648 162.584 138.912 162.257 139.054C162.135 139.088 161.747 138.907 161.676 138.744C161.346 137.53 160.901 136.947 159.941 136.976C159.104 136.972 158.295 137.169 157.41 137.281C154.318 137.636 151.352 138.557 148.193 137.991C147.757 137.928 147.271 138.062 146.826 138.158C145.46 138.325 144.052 138.53 142.648 138.655C141.806 138.73 140.885 138.801 140.145 138.483C138.665 137.846 137.219 138.009 135.712 137.849C133.091 137.631 130.465 137.492 127.853 137.114C125.358 136.782 122.873 136.292 120.349 135.759C118.495 135.382 116.637 135.084 114.923 134.355C112.74 133.441 110.553 132.608 108.311 132.05C107.955 131.991 107.524 131.849 107.341 131.56C106.792 130.693 105.908 130.806 105.075 130.722C104.757 130.705 104.447 130.529 103.628 130.206C105.209 129.771 106.261 129.508 107.314 129.244C107.88 129.114 108.45 128.905 108.965 128.972C109.4 129.035 109.776 129.454 110.277 129.76C110.205 128.918 110.274 128.403 111.032 128.403C111.313 128.378 111.589 128.433 111.828 128.445C112.866 127.742 114.059 127.805 115.229 127.588C116.679 127.345 118.12 127.262 119.363 126.45C120.079 126.488 120.791 126.605 121.474 126.522C125.212 126.041 128.904 125.678 132.685 125.838C134.566 125.738 136.452 125.559 138.324 125.618C139.4 125.635 140.532 125.376 141.53 126.067C141.039 126.28 140.506 126.531 140.015 126.745C140.62 127.335 141.345 127.214 142.061 127.252C144.687 127.391 147.312 127.53 149.627 128.929C150.629 129.541 151.776 129.721 152.584 128.846C153.675 129.303 154.565 129.789 155.544 130.12C157.702 130.753 159.912 131.189 162.07 131.822C164.065 132.526 165.85 133.419 166.771 135.462ZM147.673 117.693C147.64 117.572 147.607 117.45 147.616 117.291C147.775 117.3 147.892 117.346 148.051 117.354L148.117 117.597C147.954 117.668 147.795 117.66 147.673 117.693ZM152.528 118.629C152.368 118.62 152.172 118.57 152.013 118.561C152.055 118.524 152.101 118.406 152.143 118.369C152.302 118.377 152.499 118.428 152.658 118.436C152.612 118.553 152.607 118.633 152.528 118.629ZM152.475 115.354C153.607 115.095 153.607 115.095 154.291 115.689C153.659 115.576 153.303 115.517 152.475 115.354ZM158.499 116.072C160.197 115.683 161.635 116.357 163.082 116.873C160.387 117.249 159.797 117.098 158.499 116.072ZM165.955 119.658C165.792 119.729 165.591 119.759 165.432 119.75C165.314 119.704 165.244 119.541 165.131 119.415C165.295 119.344 165.501 119.235 165.618 119.281C165.814 119.332 165.843 119.533 165.955 119.658ZM165.974 117.225C165.731 117.292 165.413 117.275 165.174 117.263C165.095 117.259 165.029 117.016 164.958 116.852C165.361 116.794 165.725 116.693 166.249 116.601C166.11 116.953 166.096 117.192 165.974 117.225ZM168.675 117.448L168.726 117.251L168.881 117.339L168.675 117.448ZM180.982 117.141C180.856 117.255 180.73 117.368 180.608 117.401C180.566 117.439 180.458 117.233 180.345 117.108C180.509 117.037 180.668 117.045 180.832 116.974L180.982 117.141ZM184.259 117.754C184.217 117.791 184.058 117.783 184.02 117.741C183.945 117.657 183.954 117.498 183.884 117.335C184.043 117.343 184.202 117.352 184.361 117.36C184.314 117.477 184.305 117.637 184.259 117.754ZM193.388 117.199C195.596 116.957 197.519 116.819 199.528 117.285C197.016 117.95 195.06 117.966 193.388 117.199ZM201.38 116.984C201.221 116.975 201.104 116.929 200.949 116.841C201.113 116.77 201.235 116.737 201.398 116.666C201.478 116.67 201.558 116.674 201.675 116.72C201.548 116.833 201.46 116.988 201.38 116.984ZM226.894 109.675C226.37 109.767 225.983 110.265 225.45 110.517C224.959 110.73 224.421 111.061 223.902 111.073C222.142 111.14 220.411 111.407 218.709 111.876C216.964 112.382 215.262 112.85 213.564 113.239C212.633 113.469 211.42 113.046 211.137 114.508C210.198 114.897 209.286 115.487 208.284 114.875C207.512 115.114 207.636 116.437 206.522 116.378C205.977 115.432 205.227 114.594 205.379 113.325C205.795 113.028 206.211 112.731 206.627 112.433C205.714 112.345 204.844 112.219 203.964 112.253C203.683 112.278 203.384 112.621 203.095 112.805C203.386 113.299 203.644 113.672 203.86 114.083C203.897 114.124 203.771 114.237 203.683 114.392C201.461 114.873 199.218 114.316 196.935 114.474C196.845 113.951 196.825 113.591 196.764 113.268C195.551 112.845 194.527 113.309 193.541 113.816C193.938 113.837 194.462 113.745 194.417 114.541C193.977 114.557 193.533 114.653 193.135 114.632C192.976 114.624 192.835 114.297 192.685 114.13L193.344 113.766C191.799 113.564 190.292 113.405 188.705 113.241C187.914 113.119 187.068 113.274 186.392 112.52C186.499 112.047 186.643 111.615 186.746 111.222C184.405 110.978 182.116 110.538 179.928 111.819C179.269 112.183 178.305 112.292 177.776 111.785C177.016 111.106 176.249 111.265 175.374 111.219C173.825 111.097 172.187 111.13 170.754 110.376C170.29 110.112 169.649 110.158 169.092 110.128C168.376 110.09 167.613 110.17 166.86 110.09C165.076 109.876 163.372 109.666 161.64 109.255C159.87 108.802 157.994 108.823 156.14 108.445C153.027 107.762 149.853 107.434 146.736 106.831C144.526 106.394 142.368 105.762 140.209 105.129C137.779 104.362 135.437 103.44 133.091 102.597C131.958 102.178 130.825 101.759 129.84 100.829C129.98 100.478 130.115 100.205 130.255 99.8537C129.38 99.8074 128.5 99.8406 127.386 99.7817C127.769 99.363 127.946 99.0532 128.11 98.9821C130.472 98.1494 132.838 97.2372 135.233 96.5259C137.464 95.8859 139.803 95.451 142.062 95.0119C143.798 94.6648 145.628 94.7617 147.095 93.5226C147.389 93.2588 148.021 93.3721 148.423 93.3135C149.827 93.1883 151.231 93.0631 152.601 92.8164C153.205 92.7286 153.827 92.3226 154.327 91.95C154.953 91.4645 154.474 90.7608 154.51 90.1243C154.519 89.9652 154.688 89.8145 154.907 89.467C155.703 89.5091 156.615 89.5973 157.533 89.6059C157.399 90.5564 157.474 90.6402 158.283 90.4436C159.389 91.3401 160.573 91.5623 161.882 90.9932C162.289 90.8551 162.692 90.7966 163.099 90.6585C164.185 91.1948 165.276 91.6516 166.526 91.4384C166.913 90.9401 166.575 90.5632 166.233 90.2658C165.741 89.8008 166.157 89.5036 166.339 89.1142C165.987 88.9759 165.636 88.8376 165.285 88.6993C165.327 88.6617 165.369 88.624 165.449 88.6282C167.801 87.9547 167.918 88.0008 169.363 89.9526C169.546 90.2416 169.842 90.6562 170.16 90.673C171.855 91.042 173.578 91.612 175.279 90.4651C177.457 91.4581 179.783 91.262 182.085 91.4636C182.791 90.9823 183.536 91.2211 184.247 91.3386C186.457 91.7747 188.666 92.2108 190.839 92.6051C192.023 92.8273 193.343 92.7775 194.392 93.2719C196.607 94.3068 198.976 94.7514 201.438 94.9614C201.714 95.016 201.995 94.9909 202.266 95.125C205.927 95.997 209.551 96.8272 213.208 97.7787C218.948 99.2795 224.501 101.249 228.889 105.471C229.077 105.681 229.353 105.735 229.545 105.865C229.577 108.101 228.793 109.257 226.894 109.675ZM225.734 87.3091C225.571 87.3802 225.407 87.4514 225.248 87.443C225.215 87.3215 225.224 87.1624 225.191 87.0409C225.35 87.0494 225.509 87.0578 225.71 87.0286C225.743 87.15 225.776 87.2714 225.734 87.3091ZM236.313 93.5348C236.116 93.4845 235.924 93.3546 235.727 93.3043C235.769 93.2666 235.853 93.1913 235.937 93.1159C236.134 93.1662 236.368 93.2584 236.565 93.3087C236.481 93.3841 236.35 93.5767 236.313 93.5348ZM240.38 88.6825C240.22 88.6741 240.061 88.6657 239.902 88.6573C239.902 88.6573 239.869 88.5358 239.874 88.4563C239.995 88.4228 240.197 88.3935 240.318 88.3601C240.314 88.4396 240.347 88.5611 240.38 88.6825ZM251.319 87.8648C251.231 88.0197 251.179 88.2165 251.058 88.25C250.815 88.3169 250.492 88.3796 250.253 88.367C250.056 88.3167 249.873 88.0277 249.765 87.8225C249.728 87.7806 249.985 87.475 250.106 87.4415C250.467 87.4207 250.822 87.4794 251.099 87.5339C251.249 87.7015 251.361 87.8271 251.319 87.8648ZM255.403 86.9237C254.987 87.2209 254.571 87.5181 254.08 87.7316C253.958 87.765 253.724 87.6728 253.612 87.5472C253.537 87.4634 253.597 87.1075 253.676 87.1117C254.13 86.8564 254.616 86.7225 255.107 86.5091C255.257 86.6766 255.29 86.7981 255.403 86.9237ZM252.533 76.3577C253.153 77.388 254.104 78.1965 254.93 79.118C255.38 79.6206 255.835 80.0437 256.243 80.584C257.017 81.7023 256.776 83.126 255.467 83.6951C254.401 84.1973 253.359 84.9801 252.024 84.5903C251.631 84.4897 251.103 84.6613 250.654 84.837C249.597 85.1801 248.573 85.6446 247.511 86.0673C247.194 86.7288 246.877 87.3904 246.518 88.0896C245.634 88.2024 244.787 88.3571 243.983 88.4741C243.695 90.0151 243.49 90.1239 242.14 89.2944C242.587 87.7619 244.525 88.0639 245.331 86.5105C243.525 86.6943 241.958 86.8907 240.395 87.0075C238.514 87.1075 236.624 87.3666 234.799 87.1902C232.735 87.0012 230.773 86.4186 228.639 86.7446C228.237 86.8031 227.731 86.5768 227.258 86.472C226.43 86.3085 225.643 86.1073 224.773 85.9814C220.888 85.5364 216.943 85.4474 213.076 84.6842C210.787 84.2439 208.455 83.8412 206.166 83.4009C205.061 83.1828 203.999 82.9271 202.889 82.7886C197.464 82.0626 192.234 80.7086 186.93 79.2708C184.219 78.5288 181.517 77.6277 178.89 76.8104C175.95 75.8967 172.925 75.0584 170.399 73.1691C169.902 72.7837 169.191 72.6662 168.61 72.3562C166.938 71.5894 165.228 70.7807 163.477 70.0097C163.593 69.3774 163.699 68.9043 163.764 68.4688C163.875 67.916 163.982 67.4429 164.047 67.0074C163.588 66.6639 163.32 66.4502 163.016 66.1947C164.321 65.7051 164.363 65.6674 165.173 66.1492C166.251 66.8447 167.346 67.2219 168.595 67.0086C169.442 66.8539 169.633 66.3054 169.356 65.5725C169.751 64.2368 170.667 63.567 172.057 63.6805C172.375 63.6973 172.689 63.7937 173.045 63.8525C173.47 63.3961 173.919 63.2204 174.537 63.5723C174.846 63.7483 175.352 63.9745 175.52 63.8238C176.726 62.9699 177.541 63.3721 178.446 64.2978C179.088 64.9303 179.608 64.9179 179.971 64.1391C180.465 63.1678 181.264 62.4519 182.093 62.6154C183.118 62.8293 183.804 61.9878 184.6 62.0299C185.134 62.4572 185.556 62.7588 185.711 62.8468C187.904 62.1648 189.7 61.4618 191.579 62.7982C192.155 63.1878 192.651 62.8948 193.038 62.3966C193.22 62.0072 193.439 61.6596 193.621 61.2703C194.89 61.4172 196.12 61.5222 197.389 61.6691C198.657 61.816 199.954 62.164 201.231 61.4734C201.436 61.3645 201.876 61.3479 201.989 61.4736C202.856 62.3574 203.781 61.5285 204.619 61.5329C206.177 61.4957 207.805 60.9434 209.127 62.2503C209.277 62.4178 209.792 62.485 209.918 62.3719C210.796 61.6603 211.701 62.586 212.674 62.3183C212.637 60.1616 210.597 60.2532 209.407 59.4321C210.393 58.9257 211.132 58.5658 212.186 58.9806C213.478 59.4081 213.695 60.4969 214.001 61.4309C217.113 61.4359 219.811 62.4166 222.578 63.5605C222.999 63.1838 223.344 62.7232 223.835 62.5098C224.289 62.2545 224.888 62.2463 225.374 62.1124C225.749 62.5313 226.171 62.8329 226.812 62.787C226.437 62.3681 226.015 62.0665 225.454 62.1166C224.886 61.5679 224.264 61.2955 223.459 61.4125C223.178 61.4376 222.831 61.2197 222.438 61.1191C223.853 59.3984 223.811 59.4361 225.315 60.3536C226.819 61.2711 228.416 61.9541 230.268 61.6531C230.872 61.5654 231.583 61.6828 231.801 62.7716C231.042 62.7714 230.364 62.7754 229.643 62.8171C228.806 62.8127 228.01 62.7706 227.172 62.7662C227.712 63.7923 228.569 64.1568 229.632 64.4126C232.821 65.1798 235.958 66.1438 238.685 68.0038C240.092 67.1206 241.229 67.4601 242.289 68.4738C242.894 69.0645 243.545 69.5378 244.276 70.0154C245.813 71.0543 247.434 72.018 249.013 73.0192C250.517 73.9367 251.656 74.9546 252.533 76.3577ZM215.605 55.6901C215.848 55.6232 216.096 55.4767 216.134 55.5186C216.284 55.6862 216.392 55.8914 216.537 56.1385C216.374 56.2096 216.168 56.3184 216.051 56.2724C215.901 56.1048 215.793 55.8996 215.605 55.6901ZM236.05 63.1162C236.092 63.0785 236.181 62.9236 236.219 62.9655C236.336 63.0116 236.448 63.1373 236.565 63.1833C236.523 63.221 236.477 63.3383 236.397 63.3341C236.28 63.288 236.167 63.1623 236.05 63.1162ZM240.073 56.9448L239.965 56.7396L240.199 56.8318L240.073 56.9448ZM242.146 56.9747C242.066 56.9705 241.987 56.9663 241.907 56.9621C241.991 56.8867 242.08 56.7318 242.159 56.736C242.319 56.7445 242.436 56.7906 242.59 56.8785C242.431 56.8701 242.268 56.9413 242.146 56.9747ZM242.796 56.7697C242.796 56.7697 242.796 56.7697 242.88 56.6944C242.922 56.6567 243.002 56.6609 243.081 56.6651L242.796 56.7697ZM259.472 60.3254C259.312 60.317 259.069 60.3839 259.032 60.3421C258.811 60.0112 258.595 59.6007 258.375 59.2698C258.721 59.4877 259.11 59.6679 259.457 59.8857C259.536 59.8899 259.481 60.1663 259.472 60.3254ZM297.364 58.4599C297.798 57.8444 298.19 57.2667 298.587 56.6093C298.912 57.9034 298.744 58.0541 297.364 58.4599ZM300.731 54.6878C300.096 55.3326 299.344 55.9312 298.591 56.5298C297.122 56.4121 295.746 56.7384 294.171 57.7722C295.431 58.0783 296.297 58.2837 297.242 58.4934C296.995 58.6399 296.789 58.7487 296.583 58.8575C293.52 60.092 290.231 60.3968 287.164 61.7108C286.509 61.9954 285.681 61.8318 284.922 61.8316C282.601 61.9482 280.27 61.5456 277.96 62.1815C277.716 62.2484 277.398 62.2315 277.169 62.0598C274.929 60.7443 272.129 62.272 269.945 60.6801C269.908 60.6382 269.786 60.6717 269.665 60.7051C268.504 60.7634 267.386 60.784 266.263 60.8842C266.062 60.9135 265.903 60.9051 265.701 60.9343C265.06 60.9802 264.377 61.0638 263.84 61.3944C262.76 62.1354 261.945 61.7331 260.825 61.0754C261.058 60.4892 261.291 59.903 261.562 59.3587C261.051 59.212 260.457 59.1406 259.951 58.9143C259.253 58.5582 258.725 58.7297 258.178 59.2195C256.029 58.4275 253.581 58.6571 251.627 57.237C251.36 57.0234 250.71 57.2284 250.266 57.3246C249.742 57.4165 249.213 57.5881 248.928 57.6927C248.047 57.0476 247.489 56.3397 246.74 56.1804C245.204 55.8198 243.585 55.5346 242.068 55.5342C240.753 55.5045 239.616 55.165 238.66 54.4361C237.24 53.4432 235.625 53.0785 233.967 52.7514C233.335 52.6381 232.661 52.5626 232.034 52.3698C229.918 51.6992 227.768 50.9071 225.647 50.3161C219.125 48.5346 212.798 46.125 206.653 43.3259C200.626 40.5731 194.695 37.5061 189.115 33.899C188.886 33.7273 188.698 33.5179 188.553 33.2707C188.478 33.187 188.613 32.9148 188.71 32.6008C189.417 32.7978 190.087 32.9529 190.714 33.1457C191.06 32.6852 191.321 32.3 191.494 32.0697C193.145 31.798 194.596 31.5555 196.046 31.313C196.624 30.2663 197.678 30.6812 198.525 30.5265C200.377 30.2255 202.049 30.9923 203.795 31.1645C203.954 31.1729 204.122 31.0222 204.286 30.951C204.351 30.5155 204.415 30.08 204.485 29.565C205.603 29.5444 206.604 29.4776 207.564 29.4486C207.888 30.0642 208.141 30.5166 208.395 30.9689C211.681 31.4221 211.681 31.4221 213.35 30.8321C212.549 30.1912 211.304 30.3248 210.484 29.3238C211.887 29.1985 212.959 29.2951 214.004 29.8691C215.09 30.4054 216.046 31.1344 217.436 31.2478C217.435 30.5694 217.425 30.0502 217.386 29.3299C218.201 29.7321 218.871 29.8872 219.367 30.2726C220.745 31.3032 222.299 31.3455 223.937 31.3124C225.055 31.2918 226.215 31.2335 227.287 31.3301C229.712 31.4983 232.085 31.8633 234.565 31.7551C236.123 31.7178 237.743 32.003 239.321 32.3259C239.952 32.4391 240.445 32.9041 241.026 33.2141C241.82 32.5779 242.658 32.5823 243.375 33.2986C243.01 33.399 242.603 33.537 242.238 33.6374C242.74 33.9432 243.109 33.7633 243.412 33.3404C245.756 32.826 248.452 33.1283 250.873 34.0544C251.262 34.2346 251.651 34.4147 252.002 34.553C252.203 34.5238 252.362 34.5322 252.563 34.5029C253.835 33.8919 255.033 33.8755 256.307 34.6212C256.926 34.9732 257.708 35.254 258.386 35.2499C260.585 35.1668 262.576 35.9504 264.608 36.6964C265.507 37.0233 266.402 37.4297 267.282 37.3965C267.881 37.3882 268.395 37.4554 268.952 37.4848C270.698 37.657 272.426 38.1474 274.112 38.6756C275.68 39.1576 277.085 39.7107 278.211 40.9673C278.961 41.805 279.888 42.3329 281.17 42.2411C281.769 42.2329 282.388 42.5849 282.973 42.8153C283.91 43.1841 284.884 43.5948 285.821 43.9635L285.858 44.0054C286.795 44.3742 287.773 44.7053 288.621 45.2289C291.713 46.9886 294.763 48.7859 297.766 50.7005C298.769 51.3121 299.59 52.3132 300.419 53.1551C301.192 53.595 301.156 54.2315 300.731 54.6878Z" fill="#DEE2E6"/>
</svg>
